<svg width="13" height="14" viewBox="0 0 13 14" fill="none" xmlns="http://www.w3.org/2000/svg">
<path d="M12.0039 2.62109C12.168 2.80339 12.25 3.01302 12.25 3.25C12.25 3.48698 12.168 3.69661 12.0039 3.87891L5.00391 10.8789C4.82161 11.043 4.61198 11.125 4.375 11.125C4.13802 11.125 3.92839 11.043 3.74609 10.8789L0.246094 7.37891C0.0820312 7.19661 0 6.98698 0 6.75C0 6.51302 0.0820312 6.30339 0.246094 6.12109C0.428385 5.95703 0.638021 5.875 0.875 5.875C1.11198 5.875 1.32161 5.95703 1.50391 6.12109L4.375 9.01953L10.7461 2.62109C10.9284 2.45703 11.138 2.375 11.375 2.375C11.612 2.375 11.8216 2.45703 12.0039 2.62109Z" fill="white"/>
</svg>
