<svg width="31" height="24" viewBox="0 0 31 24" fill="none" xmlns="http://www.w3.org/2000/svg">
<path d="M15.0938 1.5C14.7188 1.5 14.3438 1.5625 13.9688 1.6875L0.84375 6.42188C0.375 6.64063 0.125 7 0.09375 7.5C0.125 8 0.375 8.35938 0.84375 8.57812L3.5625 9.5625C2.78125 10.7812 2.375 12.1562 2.34375 13.6875V15C2.25 16.375 1.90625 17.6406 1.3125 18.7969C1 19.3906 0.640625 19.9688 0.234375 20.5312C0.078125 20.75 0.046875 20.9844 0.140625 21.2344C0.234375 21.4844 0.40625 21.6562 0.65625 21.75L3.65625 22.5C3.875 22.5312 4.07812 22.5 4.26562 22.4062C4.42188 22.2812 4.53125 22.1094 4.59375 21.8906C4.90625 19.8281 4.875 18.1406 4.5 16.8281C4.34375 16.1406 4.125 15.4844 3.84375 14.8594V13.6875C3.875 12.25 4.3125 10.9688 5.15625 9.84375C5.75 9.125 6.51562 8.57812 7.45312 8.20312L14.8125 5.29688C15.25 5.17187 15.5781 5.3125 15.7969 5.71875C15.9219 6.15625 15.7812 6.48437 15.375 6.70312L8.01562 9.5625C7.42188 9.8125 6.92188 10.1562 6.51562 10.5938L13.9688 13.3125C14.3438 13.4375 14.7188 13.5 15.0938 13.5C15.4688 13.5 15.8438 13.4375 16.2188 13.3125L29.3438 8.57812C29.8125 8.35938 30.0625 8 30.0938 7.5C30.0625 7 29.8125 6.64063 29.3438 6.42188L16.2188 1.6875C15.8438 1.5625 15.4688 1.5 15.0938 1.5ZM6.09375 19.125C6.15625 20 7.03125 20.7656 8.71875 21.4219C10.4062 22.1094 12.5312 22.4688 15.0938 22.5C17.6562 22.4688 19.7812 22.1094 21.4688 21.4219C23.1562 20.7656 24.0312 20 24.0938 19.125L23.3906 12.3281L16.7344 14.7188C16.2031 14.9062 15.6562 15 15.0938 15C14.5312 15 14 14.9062 13.5 14.7188L6.79688 12.3281L6.09375 19.125Z" fill="white"/>
</svg>
