<svg width="153" height="32" viewBox="0 0 153 32" fill="none" xmlns="http://www.w3.org/2000/svg">
<rect width="32" height="32" rx="8" fill="#4F46E5"/>
<path d="M16 9C15.75 9 15.5 9.04167 15.25 9.125L6.5 12.2812C6.1875 12.4271 6.02083 12.6667 6 13C6.02083 13.3333 6.1875 13.5729 6.5 13.7188L8.3125 14.375C7.79167 15.1875 7.52083 16.1042 7.5 17.125V18C7.4375 18.9167 7.20833 19.7604 6.8125 20.5312C6.60417 20.9271 6.36458 21.3125 6.09375 21.6875C5.98958 21.8333 5.96875 21.9896 6.03125 22.1562C6.09375 22.3229 6.20833 22.4375 6.375 22.5L8.375 23C8.52083 23.0208 8.65625 23 8.78125 22.9375C8.88542 22.8542 8.95833 22.7396 9 22.5938C9.20833 21.2188 9.1875 20.0938 8.9375 19.2188C8.83333 18.7604 8.6875 18.3229 8.5 17.9062V17.125C8.52083 16.1667 8.8125 15.3125 9.375 14.5625C9.77083 14.0833 10.2812 13.7188 10.9062 13.4688L15.8125 11.5312C16.1042 11.4479 16.3229 11.5417 16.4688 11.8125C16.5521 12.1042 16.4583 12.3229 16.1875 12.4688L11.2812 14.375C10.8854 14.5417 10.5521 14.7708 10.2812 15.0625L15.25 16.875C15.5 16.9583 15.75 17 16 17C16.25 17 16.5 16.9583 16.75 16.875L25.5 13.7188C25.8125 13.5729 25.9792 13.3333 26 13C25.9792 12.6667 25.8125 12.4271 25.5 12.2812L16.75 9.125C16.5 9.04167 16.25 9 16 9ZM10 20.75C10.0417 21.3333 10.625 21.8438 11.75 22.2812C12.875 22.7396 14.2917 22.9792 16 23C17.7083 22.9792 19.125 22.7396 20.25 22.2812C21.375 21.8438 21.9583 21.3333 22 20.75L21.5312 16.2188L17.0938 17.8125C16.7396 17.9375 16.375 18 16 18C15.625 18 15.2708 17.9375 14.9375 17.8125L10.4688 16.2188L10 20.75Z" fill="white"/>
<path d="M50.4307 21H46.6619V18.4312H50.2924C51.2277 18.4312 52.0122 18.2656 52.6461 17.9344C53.2799 17.6032 53.7572 17.0892 54.0781 16.3923C54.3989 15.6953 54.5593 14.8034 54.5593 13.7164C54.5593 12.6319 54.3979 11.7434 54.075 11.051C53.7522 10.3586 53.2763 9.84663 52.6474 9.51519C52.0185 9.18375 51.2394 9.01804 50.31 9.01804H46.5943V6.44922H50.4844C51.9458 6.44922 53.2015 6.73981 54.2513 7.321C55.3011 7.90218 56.1095 8.73564 56.6765 9.82139C57.2435 10.9071 57.527 12.2055 57.527 13.7164C57.527 15.2298 57.2436 16.5309 56.6769 17.6196C56.1101 18.7084 55.2969 19.5439 54.2371 20.1264C53.1774 20.7088 51.9085 21 50.4307 21ZM48.2989 6.44922V21H45.3148V6.44922H48.2989ZM63.4502 21.1367C62.6969 21.1367 62.0376 20.9722 61.4721 20.6431C60.9067 20.314 60.4685 19.8417 60.1575 19.2262C59.8465 18.6107 59.691 17.8773 59.691 17.0262V10.082H62.6196V16.5158C62.6196 17.1939 62.7952 17.7258 63.1465 18.1114C63.4978 18.497 63.9823 18.6898 64.5998 18.6898C65.0152 18.6898 65.3812 18.5996 65.698 18.4192C66.0147 18.2388 66.2636 17.9772 66.4447 17.6344C66.6258 17.2917 66.7164 16.8814 66.7164 16.4035V10.082H69.6495V21H66.8797L66.8375 18.2744H67.0086C66.7193 19.1911 66.2813 19.8973 65.6947 20.3931C65.1081 20.8888 64.36 21.1367 63.4502 21.1367ZM63.6117 8.69844L64.9684 5.65858H67.6854L65.6643 8.69844H63.6117ZM75.2174 21L71.2004 10.082H74.3108L76.1446 15.7497C76.3709 16.4555 76.5668 17.1701 76.7323 17.8937C76.8978 18.6173 77.0679 19.3654 77.2426 20.1381H76.6139C76.7851 19.3654 76.9526 18.6182 77.1163 17.8963C77.2801 17.1745 77.4718 16.459 77.6916 15.7497L79.5043 10.082H82.5831L78.5555 21H75.2174ZM84.1344 21V10.082H87.063V21H84.1344ZM85.5979 8.65882C85.1568 8.65882 84.779 8.51139 84.4643 8.21653C84.1495 7.92168 83.9922 7.56786 83.9922 7.15506C83.9922 6.73384 84.1495 6.37753 84.4643 6.08612C84.779 5.79471 85.1568 5.649 85.5979 5.649C86.0409 5.649 86.42 5.79452 86.7352 6.08555C87.0504 6.37659 87.2081 6.733 87.2081 7.15479C87.2081 7.56814 87.0504 7.92215 86.7352 8.21682C86.42 8.51148 86.0409 8.65882 85.5979 8.65882ZM93.5459 21.1816C92.7112 21.1816 91.957 20.9655 91.2833 20.5331C90.6095 20.1008 90.0773 19.4667 89.6867 18.6309C89.2961 17.7951 89.1008 16.7714 89.1008 15.5598C89.1008 14.316 89.3021 13.2779 89.7048 12.4453C90.1074 11.6128 90.6448 10.9879 91.3168 10.5709C91.9888 10.1538 92.7263 9.94531 93.5293 9.94531C94.1475 9.94531 94.6623 10.0493 95.0737 10.2573C95.4851 10.4653 95.8171 10.7218 96.0699 11.0269C96.3226 11.3319 96.5129 11.6295 96.6406 11.9197H96.7351V6.44922H99.6637V21H96.7832V19.2525H96.6406C96.5058 19.5458 96.3097 19.8402 96.0522 20.1359C95.7947 20.4316 95.4622 20.6799 95.0545 20.8806C94.6469 21.0813 94.144 21.1816 93.5459 21.1816ZM94.4477 18.8341C94.9465 18.8341 95.371 18.6969 95.7213 18.4224C96.0715 18.1479 96.3384 17.7647 96.5217 17.2728C96.7051 16.7809 96.7968 16.2069 96.7968 15.5508C96.7968 14.8876 96.7059 14.313 96.524 13.8268C96.3421 13.3406 96.076 12.9634 95.7258 12.6952C95.3755 12.4269 94.9495 12.2928 94.4477 12.2928C93.9369 12.2928 93.5074 12.4314 93.1591 12.7086C92.8109 12.9858 92.5483 13.369 92.3715 13.8582C92.1946 14.3474 92.1061 14.9116 92.1061 15.5508C92.1061 16.1894 92.1953 16.7564 92.3737 17.2515C92.5521 17.7467 92.8161 18.1343 93.1659 18.4142C93.5156 18.6941 93.9429 18.8341 94.4477 18.8341ZM105.213 21.2117C104.519 21.2117 103.898 21.0894 103.349 20.8448C102.8 20.6002 102.368 20.2361 102.054 19.7523C101.739 19.2686 101.582 18.6669 101.582 17.9473C101.582 17.3363 101.693 16.8268 101.916 16.4186C102.139 16.0104 102.444 15.6816 102.831 15.4324C103.218 15.1832 103.658 14.9936 104.15 14.8636C104.643 14.7336 105.159 14.643 105.698 14.592C106.328 14.5284 106.837 14.4686 107.224 14.4125C107.611 14.3564 107.896 14.2686 108.077 14.1491C108.258 14.0296 108.348 13.8523 108.348 13.617V13.5689C108.348 13.2574 108.282 12.9938 108.149 12.7782C108.017 12.5627 107.824 12.3975 107.57 12.2828C107.316 12.168 107.003 12.1106 106.632 12.1106C106.259 12.1106 105.933 12.1674 105.653 12.2809C105.373 12.3944 105.144 12.546 104.966 12.7357C104.788 12.9253 104.659 13.1383 104.581 13.3746L101.895 12.9287C102.08 12.2928 102.39 11.7534 102.827 11.3105C103.264 10.8676 103.806 10.5293 104.455 10.2957C105.103 10.0621 105.832 9.94531 106.642 9.94531C107.228 9.94531 107.797 10.0147 108.351 10.1536C108.904 10.2925 109.401 10.5097 109.841 10.8053C110.281 11.1009 110.63 11.4831 110.889 11.952C111.147 12.4208 111.277 12.9868 111.277 13.6498V21H108.499V19.484H108.403C108.226 19.8223 107.991 20.1212 107.699 20.3809C107.406 20.6405 107.054 20.8439 106.642 20.991C106.231 21.1381 105.754 21.2117 105.213 21.2117ZM106.038 19.158C106.499 19.158 106.904 19.0662 107.253 18.8826C107.602 18.699 107.875 18.4512 108.073 18.1392C108.27 17.8273 108.369 17.4798 108.369 17.0969V15.9155C108.28 15.9755 108.148 16.0318 107.974 16.0843C107.8 16.1368 107.606 16.1839 107.392 16.2254C107.177 16.2669 106.966 16.303 106.757 16.3335C106.548 16.364 106.362 16.3908 106.2 16.4139C105.84 16.4625 105.524 16.5449 105.251 16.6613C104.978 16.7778 104.766 16.9334 104.615 17.1283C104.464 17.3232 104.389 17.5675 104.389 17.8611C104.389 18.1438 104.46 18.3813 104.602 18.5737C104.745 18.7661 104.94 18.9116 105.187 19.0101C105.434 19.1087 105.718 19.158 106.038 19.158Z" fill="#1F2937"/>
<path d="M113.84 21V6.44922H116.824V12.3269H123.164V6.44922H126.148V21H123.164V14.8008H116.824V21H113.84ZM132.474 21.1367C131.72 21.1367 131.061 20.9722 130.496 20.6431C129.93 20.314 129.492 19.8417 129.181 19.2262C128.87 18.6107 128.714 17.8773 128.714 17.0262V10.082H131.643V16.5158C131.643 17.1939 131.819 17.7258 132.17 18.1114C132.521 18.497 133.006 18.6898 133.623 18.6898C134.039 18.6898 134.405 18.5996 134.721 18.4192C135.038 18.2388 135.287 17.9772 135.468 17.6344C135.649 17.2917 135.74 16.8814 135.74 16.4035V10.082H138.673V21H135.903L135.861 18.2744H136.032C135.743 19.1911 135.305 19.8973 134.718 20.3931C134.132 20.8888 133.383 21.1367 132.474 21.1367ZM147.283 21.1816C146.692 21.1816 146.191 21.0813 145.78 20.8806C145.369 20.6799 145.035 20.4316 144.779 20.1359C144.523 19.8402 144.326 19.5458 144.189 19.2525H144.046V21H141.166V6.44922H144.094V11.9197H144.189C144.323 11.6295 144.515 11.3319 144.764 11.0269C145.014 10.7218 145.344 10.4653 145.756 10.2573C146.167 10.0493 146.682 9.94531 147.3 9.94531C148.11 9.94531 148.849 10.1538 149.517 10.5709C150.186 10.9879 150.722 11.6128 151.125 12.4453C151.527 13.2779 151.729 14.316 151.729 15.5598C151.729 16.7714 151.533 17.7951 151.143 18.6309C150.752 19.4667 150.221 20.1008 149.551 20.5331C148.88 20.9655 148.125 21.1816 147.283 21.1816ZM146.382 18.8341C146.893 18.8341 147.322 18.6941 147.668 18.4142C148.015 18.1343 148.277 17.7467 148.456 17.2515C148.634 16.7564 148.723 16.1894 148.723 15.5508C148.723 14.9116 148.635 14.3474 148.458 13.8582C148.281 13.369 148.019 12.9858 147.673 12.7086C147.326 12.4314 146.896 12.2928 146.382 12.2928C145.88 12.2928 145.454 12.4269 145.104 12.6952C144.753 12.9634 144.487 13.3406 144.305 13.8268C144.123 14.313 144.032 14.8876 144.032 15.5508C144.032 16.2069 144.124 16.7809 144.308 17.2728C144.491 17.7647 144.759 18.1479 145.11 18.4224C145.462 18.6969 145.886 18.8341 146.382 18.8341Z" fill="#4F46E5"/>
</svg>
